# xmcd
#
# Track frame offsets:
#	150
#	12157
#	22756
#	32433
#	43201
#	54002
#	62922
#	75368
#	87140
#	98470
#	109973
#	121106
#	133502
#	146458
#	156812
#	168694
#	180754
#	191463
#
# Disc length: 2683 seconds
#
# Revision: 0
# Processed by: cddbd v1.5.2PL0 Copyright (c) Steve Scherf et al.
# Submitted via: dBpowerAMP V4.0
#
DISCID=cc0a7912
DTITLE=Various Artist - Shart Shakers
DYEAR=2006
DGENRE=Oldies
TTITLE0=Fats Domino - Blueberry Hill (Live)
TTITLE1=Fabian - Turn Me Loose
TTITLE2=Johnny Cash - Ballad Of A Teenage Queen
TTITLE3=The Chordettes - Mister Sandman
TTITLE4=Bobby Leweis - Tossin' and Turnin'
TTITLE5=The Everly Brothers - Wake Up Little Susie
TTITLE6=Leroy Van Dyke - Auctioneer
TTITLE7=Frankie Avalon - Why?
TTITLE8=Johnny Tillotson - Poetry In Motion
TTITLE9=Jerry Lee Lewis - Drinkin' Wine Spo-dee-o-dee
TTITLE10=Conway Twitty - Hello Darlin'
TTITLE11=Alwin Cash - Twine Time
TTITLE12=Art and Dotty Todd - Chanson d'Amour
TTITLE13=Barbara George - Anymore
TTITLE14=Barbara Lewis - Hello Stranger
TTITLE15=Bobby Sherman - Easy Come, Easy Go
TTITLE16=Claudine Clark - Party Lights
TTITLE17=Jewel Akens - The Birds And The Bees
EXTD=
EXTT0=
EXTT1=
EXTT2=
EXTT3=
EXTT4=
EXTT5=
EXTT6=
EXTT7=
EXTT8=
EXTT9=
EXTT10=
EXTT11=
EXTT12=
EXTT13=
EXTT14=
EXTT15=
EXTT16=
EXTT17=
PLAYORDER=
